<?xml version="1.0" encoding="UTF-8"?>
<!DOCTYPE svg PUBLIC "-//W3C//DTD SVG 1.1//EN" "http://www.w3.org/Graphics/SVG/1.1/DTD/svg11.dtd">
<svg xmlns="http://www.w3.org/2000/svg" version="1.1" width="268px" height="268px" style="shape-rendering:geometricPrecision; text-rendering:geometricPrecision; image-rendering:optimizeQuality; fill-rule:evenodd; clip-rule:evenodd" xmlns:xlink="http://www.w3.org/1999/xlink">
<g><path style="opacity:0.885" fill="#b8d1ec" d="M 188.5,263.5 C 187.539,261.735 187.205,259.735 187.5,257.5C 237.537,228.41 257.704,185.077 248,127.5C 237.647,89.8124 214.48,63.3124 178.5,48C 127.264,30.3814 83.4304,41.548 47,81.5C 17.8597,120.809 13.5263,162.809 34,207.5C 46.0469,229.047 62.8802,245.714 84.5,257.5C 84.7845,259.415 84.4511,261.081 83.5,262.5C 51.2386,246.064 30.0719,220.398 20,185.5C 17.631,185.273 15.131,185.107 12.5,185C 11.0692,184.535 9.90252,183.701 9,182.5C 8.33333,165.5 8.33333,148.5 9,131.5C 9.5,130.333 10.3333,129.5 11.5,129C 14.095,128.774 16.595,128.274 19,127.5C 30.7228,82.7778 58.5561,53.2778 102.5,39C 153.679,26.6177 196.512,40.1177 231,79.5C 242.282,94.0653 249.782,110.399 253.5,128.5C 255.857,128.337 258.19,128.503 260.5,129C 261.126,129.75 261.626,130.584 262,131.5C 262.667,148.5 262.667,165.5 262,182.5C 259.525,185.524 256.525,186.19 253,184.5C 242.973,220.346 221.473,246.679 188.5,263.5 Z"/></g>
<g><path style="opacity:1" fill="#e4f4fa" d="M 187.5,257.5 C 187.649,245.983 188.316,234.65 189.5,223.5C 189.18,226.898 189.513,230.232 190.5,233.5C 220.915,209.979 233.748,178.979 229,140.5C 218.674,96.5103 191.174,70.6769 146.5,63C 132.088,61.4177 118.088,63.0844 104.5,68C 103.833,69 103.167,70 102.5,71C 98.0331,70.8783 94.0331,72.0449 90.5,74.5C 90.4413,72.2776 89.2747,71.2776 87,71.5C 54.6202,89.8923 37.7869,117.892 36.5,155.5C 37.0418,177.626 44.0418,197.459 57.5,215C 59.265,215.64 60.9317,215.473 62.5,214.5C 67.7911,221.791 74.1244,228.124 81.5,233.5C 82.4909,229.555 82.8242,225.555 82.5,221.5C 83.8938,233.307 84.5605,245.307 84.5,257.5C 62.8802,245.714 46.0469,229.047 34,207.5C 13.5263,162.809 17.8597,120.809 47,81.5C 83.4304,41.548 127.264,30.3814 178.5,48C 214.48,63.3124 237.647,89.8124 248,127.5C 257.704,185.077 237.537,228.41 187.5,257.5 Z"/></g>
<g><path style="opacity:1" fill="#d2ebf3" d="M 189.5,223.5 C 189.723,216.16 190.056,208.827 190.5,201.5C 208.37,189.363 212.87,173.363 204,153.5C 200.597,148.595 196.43,144.595 191.5,141.5C 190.49,108.821 173.823,89.8207 141.5,84.5C 114.712,83.1628 95.5451,94.8295 84,119.5C 81.5491,126.635 80.3824,133.968 80.5,141.5C 62.6293,153.976 58.796,169.976 69,189.5C 72.4029,194.405 76.5695,198.405 81.5,201.5C 82.331,208.131 82.6643,214.798 82.5,221.5C 82.8242,225.555 82.4909,229.555 81.5,233.5C 74.1244,228.124 67.7911,221.791 62.5,214.5C 62.6602,212.801 62.4935,211.134 62,209.5C 43.28,182.657 39.28,153.657 50,122.5C 58.0011,102.997 71.1678,87.9968 89.5,77.5C 90.3857,76.675 90.719,75.675 90.5,74.5C 94.0331,72.0449 98.0331,70.8783 102.5,71C 103.167,70 103.833,69 104.5,68C 118.088,63.0844 132.088,61.4177 146.5,63C 191.174,70.6769 218.674,96.5103 229,140.5C 233.748,178.979 220.915,209.979 190.5,233.5C 189.513,230.232 189.18,226.898 189.5,223.5 Z"/></g>
<g><path style="opacity:1" fill="#fdfefe" d="M 90.5,74.5 C 90.719,75.675 90.3857,76.675 89.5,77.5C 71.1678,87.9968 58.0011,102.997 50,122.5C 39.28,153.657 43.28,182.657 62,209.5C 62.4935,211.134 62.6602,212.801 62.5,214.5C 60.9317,215.473 59.265,215.64 57.5,215C 44.0418,197.459 37.0418,177.626 36.5,155.5C 37.7869,117.892 54.6202,89.8923 87,71.5C 89.2747,71.2776 90.4413,72.2776 90.5,74.5 Z"/></g>
<g><path style="opacity:1" fill="#ee754f" d="M 141.5,84.5 C 138.813,84.3359 136.146,84.5026 133.5,85C 147.92,93.1394 155.42,105.639 156,122.5C 156.5,129.158 156.666,135.825 156.5,142.5C 141.48,155.09 137.98,170.423 146,188.5C 157.469,204.243 172.302,208.577 190.5,201.5C 190.056,208.827 189.723,216.16 189.5,223.5C 188.316,234.65 187.649,245.983 187.5,257.5C 187.205,259.735 187.539,261.735 188.5,263.5C 189.167,264.833 189.833,266.167 190.5,267.5C 154.5,267.5 118.5,267.5 82.5,267.5C 82.6287,265.784 82.962,264.117 83.5,262.5C 84.4511,261.081 84.7845,259.415 84.5,257.5C 84.5605,245.307 83.8938,233.307 82.5,221.5C 82.6643,214.798 82.331,208.131 81.5,201.5C 104.559,209.219 120.726,201.885 130,179.5C 132.737,154.581 121.737,140.581 97,137.5C 91.2404,137.884 85.7404,139.217 80.5,141.5C 80.3824,133.968 81.5491,126.635 84,119.5C 95.5451,94.8295 114.712,83.1628 141.5,84.5 Z"/></g>
<g><path style="opacity:1" fill="#ec6e4d" d="M 141.5,84.5 C 173.823,89.8207 190.49,108.821 191.5,141.5C 179.697,135.965 168.031,136.298 156.5,142.5C 156.666,135.825 156.5,129.158 156,122.5C 155.42,105.639 147.92,93.1394 133.5,85C 136.146,84.5026 138.813,84.3359 141.5,84.5 Z"/></g>
<g><path style="opacity:1" fill="#f5a781" d="M 110.5,102.5 C 118.921,102.725 122.088,106.725 120,114.5C 114.408,120.315 109.742,119.648 106,112.5C 105.333,110.833 105.333,109.167 106,107.5C 107.707,105.963 109.207,104.296 110.5,102.5 Z"/></g>
<g><path style="opacity:1" fill="#ea6752" d="M 81.5,201.5 C 76.5695,198.405 72.4029,194.405 69,189.5C 58.796,169.976 62.6293,153.976 80.5,141.5C 85.7404,139.217 91.2404,137.884 97,137.5C 121.737,140.581 132.737,154.581 130,179.5C 120.726,201.885 104.559,209.219 81.5,201.5 Z"/></g>
<g><path style="opacity:1" fill="#ea6752" d="M 191.5,141.5 C 196.43,144.595 200.597,148.595 204,153.5C 212.87,173.363 208.37,189.363 190.5,201.5C 172.302,208.577 157.469,204.243 146,188.5C 137.98,170.423 141.48,155.09 156.5,142.5C 168.031,136.298 179.697,135.965 191.5,141.5 Z"/></g>
<g><path style="opacity:1" fill="#f7c2b8" d="M 102.5,145.5 C 97.4635,145.413 92.4635,145.746 87.5,146.5C 90.1864,145.009 93.1864,144.343 96.5,144.5C 98.6965,144.505 100.696,144.838 102.5,145.5 Z"/></g>
<g><path style="opacity:1" fill="#fdfbfb" d="M 102.5,145.5 C 118.394,150.248 125.227,160.915 123,177.5C 117.098,193.709 105.598,200.209 88.5,197C 74.3706,190.243 68.5373,179.077 71,163.5C 74.0127,155.322 79.5127,149.655 87.5,146.5C 92.4635,145.746 97.4635,145.413 102.5,145.5 Z"/></g>
<g><path style="opacity:1" fill="#fdfbfb" d="M 166.5,145.5 C 181.866,143.099 193.032,148.766 200,162.5C 203.859,178.948 198.026,190.448 182.5,197C 158.566,199.4 147.399,188.566 149,164.5C 152.607,156.062 158.44,149.729 166.5,145.5 Z"/></g>
<g><path style="opacity:1" fill="#0e1010" d="M 93.5,158.5 C 101.709,157.872 105.209,161.539 104,169.5C 101.565,174.224 97.7314,175.724 92.5,174C 86.9742,168.357 87.3075,163.19 93.5,158.5 Z"/></g>
<g><path style="opacity:1" fill="#0c0f0f" d="M 172.5,158.5 C 180.709,157.872 184.209,161.539 183,169.5C 180.565,174.224 176.731,175.724 171.5,174C 165.974,168.357 166.308,163.19 172.5,158.5 Z"/></g>
<g><path style="opacity:1" fill="#f7f4f2" d="M 156.5,225.5 C 151.713,237.568 142.713,242.402 129.5,240C 123.315,237.647 118.982,233.48 116.5,227.5C 114.338,219.586 115.671,218.753 120.5,225C 132.762,232.916 144.429,232.083 155.5,222.5C 156.386,223.325 156.719,224.325 156.5,225.5 Z"/></g>
<g><path style="opacity:1" fill="#0f0e0d" d="M 156.5,225.5 C 156.219,235.885 152.219,244.385 144.5,251C 131.987,255.56 123.487,251.394 119,238.5C 117.85,234.888 117.017,231.222 116.5,227.5C 118.982,233.48 123.315,237.647 129.5,240C 142.713,242.402 151.713,237.568 156.5,225.5 Z"/></g>
</svg>
