<?xml version="1.0" standalone="no"?>
<!DOCTYPE svg PUBLIC "-//W3C//DTD SVG 20010904//EN"
 "http://www.w3.org/TR/2001/REC-SVG-20010904/DTD/svg10.dtd">
<svg version="1.0" xmlns="http://www.w3.org/2000/svg"
 width="141.000000pt" height="150.000000pt" viewBox="0 0 141.000000 150.000000"
 preserveAspectRatio="xMidYMid meet">

<g transform="translate(0.000000,150.000000) scale(0.100000,-0.100000)"
fill="#000000" stroke="none">
<path d="M563 1473 c-7 -2 -13 -9 -13 -14 0 -6 8 -6 19 1 27 14 247 13 274 -2
50 -26 60 -69 26 -112 -20 -26 -21 -26 -163 -26 -135 0 -144 1 -163 23 -11 12
-23 29 -26 37 -4 10 -6 9 -6 -6 -1 -11 11 -31 25 -45 24 -22 35 -24 147 -27
153 -4 197 8 213 58 15 45 1 86 -37 105 -21 11 -62 15 -156 14 -70 0 -134 -3
-140 -6z"/>
<path d="M521 1442 c-6 -12 -11 -27 -11 -34 1 -7 8 0 16 15 9 16 13 31 11 34
-3 2 -10 -4 -16 -15z"/>
<path d="M391 1360 c-77 -41 -88 -58 -15 -22 34 17 64 28 68 25 3 -4 6 1 6 10
0 10 -1 17 -2 16 -2 0 -27 -14 -57 -29z"/>
<path d="M952 1378 c6 -18 25 -20 31 -3 5 10 0 15 -14 15 -12 0 -19 -5 -17
-12z"/>
<path d="M250 1290 c-8 -5 -10 -10 -5 -10 6 0 17 5 25 10 8 5 11 10 5 10 -5 0
-17 -5 -25 -10z"/>
<path d="M1254 1274 c-78 -38 -70 -146 12 -180 87 -36 171 71 118 151 -14 21
-61 45 -88 45 -6 0 -25 -7 -42 -16z m101 -29 c63 -62 -4 -169 -85 -135 -33 14
-59 61 -52 96 11 60 94 83 137 39z"/>
<path d="M855 1228 c-11 -6 -37 -27 -58 -46 -33 -32 -43 -36 -95 -38 -69 -2
-135 -28 -188 -77 -38 -34 -41 -35 -89 -26 -51 10 -111 3 -132 -14 -20 -15
-15 -49 17 -114 20 -39 44 -70 69 -87 30 -21 40 -35 44 -65 8 -61 28 -93 81
-126 47 -28 55 -30 150 -30 82 0 112 4 157 23 58 23 140 87 160 124 21 40 -2
29 -47 -21 -56 -62 -120 -97 -205 -110 -74 -12 -127 -6 -187 22 -73 34 -67 49
46 118 52 32 54 32 82 16 54 -32 150 -14 184 34 25 36 19 45 -10 14 -19 -21
-28 -25 -37 -16 -7 7 -12 17 -12 22 0 13 -61 40 -69 32 -13 -14 -4 -25 31 -40
l38 -15 -24 -19 c-31 -26 -57 -24 -87 6 -21 22 -23 28 -13 47 7 13 19 28 27
34 13 9 13 14 -1 35 -25 39 -29 82 -13 128 11 34 12 41 1 37 -7 -2 -21 6 -29
20 -18 27 -21 26 88 29 33 0 51 6 54 15 6 18 52 64 58 57 2 -2 0 -17 -6 -32
-18 -46 -3 -40 18 8 11 24 24 47 30 51 14 9 42 -67 42 -115 0 -27 4 -38 11
-33 15 9 5 81 -18 128 -17 37 -34 43 -68 24z m-215 -137 c8 -17 3 -23 -46 -51
-79 -44 -107 -112 -88 -209 8 -40 32 -40 90 -1 l44 31 0 -31 c0 -16 -4 -30 -9
-30 -5 0 -43 -22 -84 -50 -41 -27 -77 -50 -80 -50 -14 0 -30 82 -30 146 1 70
26 152 52 168 6 4 9 11 7 15 -6 9 101 81 120 81 7 0 18 -9 24 -19z m-197 -71
c18 0 23 -25 9 -47 -5 -8 -20 -3 -52 18 -60 40 -61 43 -15 36 22 -4 48 -7 58
-7z m-50 -43 c31 -21 45 -37 42 -47 -3 -8 -9 -33 -12 -57 -3 -24 -9 -43 -14
-43 -35 0 -109 112 -109 166 0 22 3 24 23 19 12 -4 43 -21 70 -38z m237 -57
c21 -21 26 -40 11 -40 -5 0 -14 7 -21 15 -7 8 -19 15 -27 15 -7 0 -16 -7 -19
-15 -9 -21 -24 -19 -24 5 0 19 24 39 48 40 6 0 21 -9 32 -20z"/>
<path d="M754 1094 c-89 -44 -82 -181 13 -220 32 -14 41 -14 82 0 l46 15 60
-59 c55 -55 85 -73 85 -52 0 4 -29 36 -64 71 l-63 62 15 42 c14 39 14 45 -3
81 -32 68 -104 93 -171 60z m128 -32 c52 -48 44 -126 -16 -166 -40 -26 -82
-20 -122 17 -29 27 -36 40 -36 71 0 48 28 87 72 102 42 14 68 8 102 -24z"/>
<path d="M755 1045 c-28 -27 -33 -79 -11 -107 38 -50 124 -38 144 21 30 85
-70 150 -133 86z m89 -41 c29 -11 17 -26 -14 -19 -28 6 -31 4 -36 -24 -8 -39
-24 -41 -24 -3 0 44 30 63 74 46z"/>
<path d="M126 1034 c-9 -24 -7 -28 7 -15 8 6 18 7 23 3 4 -4 2 1 -5 11 -16 21
-17 21 -25 1z"/>
<path d="M1261 1036 c-9 -11 -8 -15 5 -20 22 -8 24 -8 24 8 0 21 -16 28 -29
12z"/>
<path d="M140 993 c0 -12 5 -25 10 -28 13 -8 13 15 0 35 -8 12 -10 11 -10 -7z"/>
<path d="M960 978 c0 -8 7 -32 15 -52 9 -21 11 -36 5 -36 -5 0 -2 -9 7 -20 16
-19 18 -19 24 -3 3 10 -3 38 -13 63 -22 52 -38 72 -38 48z"/>
<path d="M1250 980 c0 -5 5 -10 11 -10 5 0 7 5 4 10 -3 6 -8 10 -11 10 -2 0
-4 -4 -4 -10z"/>
<path d="M157 930 c3 -11 10 -23 16 -27 7 -4 8 0 4 11 -4 10 -7 22 -7 27 0 5
-4 9 -9 9 -5 0 -7 -9 -4 -20z"/>
<path d="M1225 890 c-3 -5 -1 -10 4 -10 6 0 11 5 11 10 0 6 -2 10 -4 10 -3 0
-8 -4 -11 -10z"/>
<path d="M175 873 c3 -10 9 -30 12 -46 3 -15 10 -30 15 -33 5 -3 6 6 2 23 -10
43 -23 73 -30 73 -3 0 -3 -8 1 -17z"/>
<path d="M1210 840 c0 -5 5 -10 10 -10 6 0 10 5 10 10 0 6 -4 10 -10 10 -5 0
-10 -4 -10 -10z"/>
<path d="M783 757 c-70 -26 -84 -77 -21 -77 65 0 129 66 82 84 -19 7 -22 7
-61 -7z m55 -24 c-2 -11 -20 -23 -43 -31 -68 -22 -86 5 -21 34 44 19 68 18 64
-3z"/>
<path d="M200 752 c-31 -9 -60 -54 -60 -93 0 -109 159 -135 191 -30 24 81 -47
149 -131 123z m98 -35 c15 -14 22 -32 22 -57 0 -78 -96 -115 -146 -56 -41 47
-28 107 29 131 37 16 63 11 95 -18z"/>
<path d="M1107 736 c-90 -83 4 -216 116 -165 59 27 63 134 8 176 -28 22 -95
16 -124 -11z m115 -10 c28 -21 39 -61 27 -96 -13 -36 -36 -50 -83 -50 -68 0
-101 86 -51 135 27 28 79 33 107 11z"/>
<path d="M110 454 c-13 -34 -13 -34 15 -34 14 0 25 -4 25 -8 0 -4 -15 -54 -34
-110 l-35 -102 38 0 38 0 38 110 c33 99 40 110 61 110 l24 0 -35 -97 c-19 -54
-35 -104 -35 -110 0 -10 35 -13 139 -13 l139 0 7 29 c3 15 19 41 35 56 l30 29
0 -41 c0 -65 6 -73 56 -73 41 0 44 2 39 23 -3 12 -9 51 -15 87 l-10 65 52 52
52 53 -35 0 c-29 0 -44 -9 -94 -60 -32 -33 -60 -58 -62 -56 -2 1 6 28 16 59
l20 57 -38 0 -39 0 -37 -110 -38 -110 -59 0 c-58 0 -64 4 -52 34 5 12 20 16
59 16 46 0 53 3 59 23 9 36 8 37 -44 37 -47 0 -49 1 -41 23 7 18 17 23 60 25
45 3 53 6 61 28 6 14 10 27 10 30 0 2 -81 4 -180 4 l-180 0 -10 -26z"/>
<path d="M735 450 c-16 -16 -25 -30 -19 -30 35 -1 35 -18 -1 -116 -19 -54 -35
-102 -35 -106 0 -5 18 -8 39 -8 l39 0 37 109 c27 82 41 110 55 114 25 6 25 1
1 -49 -36 -74 -32 -128 12 -154 54 -33 125 -20 182 34 19 18 35 32 35 31 0 -1
-7 -21 -15 -44 l-14 -41 33 0 c32 0 34 2 60 74 14 41 26 82 27 93 0 16 1 16 9
-2 5 -11 16 -50 26 -88 l17 -67 36 0 37 0 39 118 c61 179 58 162 19 162 -33 0
-34 -1 -57 -77 l-23 -77 -20 75 -19 74 -45 0 c-41 0 -45 -2 -54 -32 -9 -33
-26 -45 -26 -19 0 8 -12 24 -26 35 -24 19 -40 21 -173 21 l-147 0 -29 -30z
m289 -47 c10 -25 -23 -110 -50 -132 -68 -53 -72 56 -6 132 19 22 48 22 56 0z"/>
<path d="M247 160 c-18 -22 -87 -129 -87 -135 0 -11 28 -4 40 10 16 19 50 19
50 0 0 -9 9 -15 25 -15 25 0 25 1 25 78 0 72 -2 78 -20 78 -12 0 -26 -7 -33
-16z m13 -55 c0 -16 -6 -25 -15 -25 -18 0 -18 5 -5 31 14 26 20 24 20 -6z"/>
<path d="M390 173 c-29 -11 -50 -36 -50 -60 0 -18 7 -25 30 -29 17 -4 30 -11
30 -16 0 -14 -31 -22 -39 -10 -7 12 -51 5 -51 -7 0 -29 63 -41 103 -20 50 27
50 65 1 85 -25 11 -33 19 -26 26 7 7 16 6 30 -1 21 -11 52 -5 52 10 0 20 -48
34 -80 22z"/>
<path d="M502 168 c-5 -7 -19 -43 -30 -80 l-20 -68 23 0 c18 0 25 7 30 30 5
23 12 30 31 30 21 0 23 -3 14 -19 -16 -30 -12 -43 12 -39 17 2 26 18 44 73 29
86 29 85 3 85 -13 0 -23 -10 -30 -30 -7 -19 -18 -30 -30 -30 -15 0 -17 5 -12
30 4 23 2 30 -10 30 -8 0 -19 -6 -25 -12z"/>
<path d="M632 112 c-12 -38 -22 -74 -22 -80 0 -8 18 -12 50 -12 69 0 113 43
78 78 -9 9 -9 12 0 12 6 0 17 10 23 22 16 29 -10 48 -66 48 l-41 0 -22 -68z
m88 19 c0 -5 -7 -12 -16 -15 -22 -9 -24 -8 -24 9 0 8 9 15 20 15 11 0 20 -4
20 -9z m-22 -63 c-3 -7 -14 -14 -26 -16 -16 -3 -20 1 -16 12 7 19 48 22 42 4z"/>
<path d="M834 170 c-32 -13 -74 -69 -74 -99 0 -36 17 -51 56 -51 43 0 81 33
96 82 11 38 10 42 -11 59 -25 21 -35 22 -67 9z m32 -62 c-11 -55 -56 -84 -56
-35 0 29 27 67 47 67 12 0 14 -7 9 -32z"/>
<path d="M940 108 c-25 -39 -46 -75 -48 -80 -6 -14 25 -9 38 7 7 8 21 15 31
15 11 0 19 -7 19 -15 0 -9 9 -15 25 -15 25 0 25 1 25 80 0 77 -1 80 -23 80
-17 0 -33 -17 -67 -72z m50 -3 c0 -15 -6 -25 -15 -25 -12 0 -13 4 -3 25 6 14
13 25 15 25 1 0 3 -11 3 -25z"/>
<path d="M1086 169 c-2 -8 -12 -39 -22 -69 -9 -30 -19 -61 -22 -67 -2 -8 5
-13 21 -13 20 0 27 6 32 30 4 16 11 30 16 30 5 0 9 -13 9 -30 0 -26 4 -30 28
-30 26 0 28 2 24 32 -3 20 0 35 10 42 23 17 38 51 28 66 -12 19 -118 27 -124
9z m72 -41 c-3 -7 -14 -14 -26 -16 -16 -3 -20 1 -16 12 7 19 48 22 42 4z"/>
<path d="M1222 118 c-12 -35 -24 -71 -27 -80 -6 -15 -1 -18 34 -18 57 0 100
24 117 66 25 60 -3 94 -76 94 -26 0 -30 -5 -48 -62z m85 6 c8 -21 -15 -61 -38
-67 -22 -6 -22 -6 -7 44 11 40 34 51 45 23z"/>
<path d="M47 95 l-26 -75 42 0 c54 0 104 34 117 79 14 53 -1 71 -59 71 l-49 0
-25 -75z m93 20 c0 -27 -31 -65 -54 -65 -11 0 -11 8 3 45 18 51 51 64 51 20z"/>
</g>
</svg>
