<svg xmlns="http://www.w3.org/2000/svg" width="280" height="280" viewBox="0 0 280 280" version="1.1"><path d="M 198.409 118.288 C 197.809 118.955, 189.709 126.462, 180.409 134.970 C 171.109 143.479, 160.800 152.991, 157.500 156.109 C 154.200 159.226, 150.150 162.968, 148.500 164.424 L 145.500 167.071 149.500 165.427 C 156.900 162.385, 156.717 162.330, 158.527 168.151 C 162.191 179.940, 160.996 212.309, 156.942 211.053 C 156.149 210.808, 152.961 210.433, 149.858 210.220 C 144.525 209.854, 141.237 210.765, 130.373 215.616 C 129.632 215.947, 129.002 213.786, 128.533 209.310 C 127.850 202.786, 125.672 191.915, 124.365 188.509 C 123.818 187.084, 123.480 187.140, 121.517 188.984 C 119.340 191.029, 119.319 191.263, 120.594 199.288 C 121.311 203.805, 122.034 210.425, 122.199 214 L 122.500 220.500 114.596 220.795 L 106.692 221.090 107.321 211.522 L 107.949 201.955 104.561 204.659 C 101.986 206.713, 101.018 208.395, 100.527 211.666 C 99.897 215.869, 99.829 215.934, 97.616 214.484 C 95.530 213.117, 95.172 213.188, 93.120 215.372 L 90.890 217.746 95.294 220.327 L 99.698 222.907 100.361 232.334 C 101.213 244.459, 102.680 252.337, 105.166 258.142 C 106.259 260.696, 107.007 264.071, 106.827 265.642 L 106.500 268.500 90.500 268.732 C 71.962 269.002, 71.057 268.682, 70.255 261.574 C 69.624 255.972, 71.642 252.457, 76.044 251.490 C 81.146 250.370, 85.531 251.779, 89.783 255.905 C 92.930 258.960, 93.637 259.315, 93.210 257.627 C 92.312 254.083, 90.018 251.208, 86.367 249.054 C 83.186 247.177, 79.318 240.664, 76.575 232.563 C 75.956 230.734, 75.772 230.773, 73.284 233.261 L 70.649 235.896 72.548 240.106 C 74.420 244.258, 74.419 244.331, 72.497 245.408 C 68.236 247.795, 64.138 252.749, 63.468 256.321 L 62.777 260 53.639 260.015 C 44.670 260.029, 44.426 260.094, 40.500 263.477 L 36.500 266.925 49.683 266.962 C 61.544 266.996, 62.923 267.183, 63.444 268.824 C 63.763 269.827, 65.396 271.965, 67.075 273.574 L 70.126 276.500 88.997 276.810 C 104.699 277.068, 108.382 276.854, 110.934 275.534 C 112.620 274.662, 114 273.470, 114 272.885 C 114 272.301, 115.385 272.987, 117.077 274.411 C 120.147 276.994, 120.194 277, 138.827 276.996 C 159.605 276.992, 162.240 276.305, 165.477 270.044 L 167.051 267 181.970 267 C 196.237 267, 197.009 266.896, 199.653 264.622 C 202.076 262.538, 202.401 261.583, 202.286 256.872 C 202.214 253.918, 201.272 249.446, 200.193 246.936 C 198.090 242.045, 192.960 237, 190.090 237 C 187.335 237, 187.131 236.214, 188.614 231.288 C 190.595 224.703, 190.469 213.362, 188.401 212.204 C 186.968 211.403, 187.035 210.852, 189.037 206.927 C 194.865 195.503, 204.060 183.552, 209.843 179.885 C 213.178 177.769, 215.633 177, 219.048 177 C 225.561 177, 229.434 179.971, 233.341 187.962 C 237.122 195.697, 240.163 198.117, 246.914 198.766 C 259.395 199.965, 270.216 189.625, 268.501 178.137 C 266.037 161.630, 247.738 144.555, 230.355 142.543 C 211.543 140.366, 189.157 153.254, 174.831 174.511 C 172.449 178.045, 170.214 180.951, 169.864 180.968 C 169.513 180.986, 168.911 178.894, 168.525 176.319 C 168.139 173.745, 166.951 168.816, 165.886 165.366 L 163.948 159.093 166.724 154.098 C 168.544 150.822, 170.877 148.333, 173.500 146.867 C 178.811 143.900, 195.895 126.611, 198.814 121.250 C 201.004 117.227, 200.788 115.645, 198.409 118.288 M 220.250 152.209 C 218.588 153.997, 218 155.841, 218 159.267 C 218 165.758, 219.550 168.661, 223.359 169.302 C 225.087 169.592, 227.193 170.105, 228.040 170.441 C 229.148 170.881, 229.943 170.046, 230.878 167.460 C 232.412 163.217, 237.319 157.351, 240.062 156.480 C 241.128 156.142, 242 155.529, 242 155.118 C 242 153.527, 234.220 150.736, 228.500 150.274 C 223.110 149.839, 222.271 150.036, 220.250 152.209 M 206.500 155.278 C 201.413 158.010, 200.455 158.961, 200.203 161.532 C 199.875 164.883, 203.551 171.290, 206.081 171.777 C 206.913 171.937, 209.237 171.381, 211.247 170.541 C 214.768 169.070, 214.862 168.901, 213.820 165.914 C 213.226 164.209, 212.991 160.381, 213.297 157.407 C 213.604 154.433, 213.551 152.013, 213.178 152.028 C 212.805 152.044, 209.800 153.506, 206.500 155.278 M 239.503 163.297 C 235.377 167.423, 233.397 173.676, 235.485 175.983 C 236.274 176.855, 238.046 180.115, 239.423 183.229 C 242.133 189.357, 244.154 191, 248.984 191 C 256.314 191, 261.771 184.925, 260.505 178.175 C 259.622 173.468, 256.725 167.895, 252.890 163.528 C 248.667 158.718, 244.160 158.640, 239.503 163.297 M 189.127 168.478 C 184.279 173.738, 184.024 175.718, 187.750 179.184 C 192.308 183.425, 195.123 183.500, 199.012 179.487 L 202.370 176.023 200.233 173.748 C 199.057 172.496, 197.393 169.791, 196.534 167.736 C 195.676 165.681, 194.587 164, 194.114 164 C 193.641 164, 191.397 166.015, 189.127 168.478 M 176.549 185.346 C 174.597 188.836, 173 191.891, 173 192.134 C 173 192.377, 175.250 194.973, 178 197.902 C 180.750 200.831, 183 202.800, 183 202.277 C 183 201.755, 185.003 198.216, 187.450 194.414 L 191.901 187.500 188.541 185.772 C 186.692 184.822, 184.288 182.910, 183.196 181.522 C 182.105 180.135, 180.961 179, 180.655 179 C 180.349 179, 178.501 181.856, 176.549 185.346 M 167 199.750 C 167 202.076, 165.228 212.059, 163.259 220.834 L 162.735 223.168 167.617 220.721 C 170.303 219.374, 174.136 217.744, 176.136 217.097 C 179.585 215.981, 179.732 215.756, 179.004 212.710 C 177.590 206.800, 176.236 204.446, 172.102 200.711 C 169.843 198.670, 167.771 197, 167.497 197 C 167.224 197, 167 198.238, 167 199.750 M 140.939 217.367 C 138.430 218.042, 134.960 219.605, 133.226 220.839 C 129.811 223.271, 129.778 223.390, 128.171 239.038 C 127.633 244.284, 126.024 252.056, 124.596 256.309 C 120.536 268.404, 119.945 267.680, 134.559 268.523 C 154.899 269.696, 159 268.262, 159 259.978 C 159 256.962, 158.365 255.643, 155.923 253.589 C 151.104 249.534, 145.249 250.471, 139.250 256.258 C 136.286 259.116, 136 259.208, 136 257.302 C 136 255.268, 138.677 252.103, 144.714 247 C 146.766 245.265, 148.946 241.232, 151.836 233.825 C 154.126 227.954, 156 222.233, 156 221.111 C 156 217.313, 148.272 215.393, 140.939 217.367 M 171.559 225.022 C 166.641 227.176, 161.840 229.739, 160.888 230.719 C 159.937 231.698, 158.039 235.290, 156.670 238.699 L 154.182 244.898 157.841 246.739 C 160.491 248.071, 162.190 250.015, 164 253.786 L 166.500 258.993 180.750 258.996 C 194.410 259, 195 258.916, 195 256.968 C 195 252.080, 192.150 247.954, 187.289 245.804 C 183.116 243.958, 181.876 243.825, 177.505 244.759 C 174.752 245.347, 171.600 246.166, 170.500 246.579 C 169.400 246.992, 170.620 245.329, 173.210 242.882 C 178.243 238.129, 181.370 232.124, 182.392 225.250 C 182.853 222.150, 182.682 221.014, 181.762 221.053 C 181.068 221.082, 176.477 222.868, 171.559 225.022 M 114.180 225.745 L 105.859 226.083 106.370 228.792 C 106.651 230.281, 107.183 234.875, 107.553 239 C 107.923 243.125, 108.962 248.750, 109.863 251.500 C 111.317 255.940, 111.848 256.534, 114.607 256.803 C 117.971 257.130, 118.662 256.120, 120.965 247.500 C 122.034 243.496, 123.656 224.820, 122.901 225.204 C 122.680 225.315, 118.756 225.559, 114.180 225.745" stroke="none" fill="#503a83" fill-rule="evenodd"/><path d="M 20.030 3.279 C 15.698 5.471, 13.298 10.354, 11.977 19.665 C 10.544 29.758, 11.138 38.311, 14.049 49.500 C 16.312 58.198, 22.245 70.136, 27.492 76.549 C 30.582 80.326, 30.747 80.898, 29.946 85.049 C 28.641 91.814, 28.809 113.459, 30.193 116.703 C 33.880 125.350, 49.091 142.115, 57.794 147.124 C 59.917 148.346, 62.571 150.955, 63.692 152.923 C 65.676 156.406, 65.683 156.609, 63.954 160.637 C 62.226 164.663, 59.762 175.778, 58.529 185.109 C 57.997 189.133, 57.349 190.128, 53.434 192.940 C 48.917 196.184, 43.027 204.887, 43.009 208.344 C 43.004 209.358, 42.139 210.412, 41.087 210.687 C 37.771 211.555, 37.369 226.038, 40.440 234 C 40.841 235.040, 39.638 236.231, 36.519 237.884 C 30.819 240.903, 26.757 248.660, 26.640 256.747 C 26.576 261.214, 26.982 262.437, 29.302 264.759 C 32.002 267.462, 32.244 267.505, 46.702 267.827 L 61.365 268.154 65.288 272.327 C 68.848 276.114, 68.924 276.150, 66.105 272.715 C 64.397 270.634, 63 268.496, 63 267.965 C 63 267.395, 57.572 266.985, 49.750 266.962 L 36.500 266.925 40.500 263.477 C 44.433 260.087, 44.654 260.030, 53.750 260.015 C 61.918 260.002, 62.991 259.795, 62.921 258.250 C 62.874 257.205, 62.639 257.003, 62.338 257.750 C 61.969 258.663, 58.214 259, 48.417 259 L 35 259 35 256.450 C 35 252.561, 37.680 248.217, 41.203 246.395 C 43.657 245.126, 45.742 244.913, 50.436 245.450 C 53.771 245.831, 57.288 246.207, 58.250 246.286 C 59.212 246.364, 60 246.782, 60 247.214 C 60 247.646, 60.470 248, 61.045 248 C 61.619 248, 59.688 245.637, 56.753 242.750 C 50.920 237.012, 48.442 232.617, 47.414 226.187 C 46.926 223.134, 47.085 222, 48.003 222 C 48.696 222, 53.456 223.839, 58.582 226.088 C 66.900 229.735, 68.023 230.541, 69.025 233.576 L 70.148 236.978 72.665 233.986 C 74.050 232.341, 75.591 231.247, 76.091 231.556 C 77.317 232.314, 77.288 232.149, 75.032 225.592 L 73.063 219.871 76.753 218.330 C 80.338 216.832, 86.114 216.955, 90.459 218.623 C 91.635 219.074, 92.093 218.960, 91.695 218.315 C 90.944 217.100, 95.342 212.675, 96.324 213.658 C 96.696 214.029, 97 214.017, 97 213.631 C 97 213.245, 94.862 212.006, 92.250 210.877 C 87.504 208.827, 79.074 208.659, 73.314 210.501 C 71.397 211.114, 71.028 210.726, 70.314 207.350 C 68.741 199.911, 69.359 175.005, 71.271 168.801 C 72.236 165.666, 73.419 162.859, 73.900 162.562 C 74.380 162.265, 77.636 163.302, 81.136 164.866 C 87.158 167.557, 96.873 170.460, 97.560 169.774 C 97.733 169.600, 95.067 168.001, 91.633 166.221 C 88.200 164.441, 83.615 161.161, 81.445 158.933 C 77.227 154.602, 77.642 154.572, 86.593 158.560 C 104.961 166.744, 125.251 167.045, 143.370 159.403 C 153.063 155.315, 154.086 155.207, 150.924 158.606 C 147.692 162.081, 141.418 166.288, 136.500 168.278 C 133.169 169.626, 132.918 169.904, 135 169.937 C 137.956 169.984, 147.925 167.441, 148.853 166.404 C 149.209 166.006, 148.600 165.980, 147.500 166.345 C 146.045 166.828, 146.318 166.294, 148.500 164.385 C 150.150 162.941, 153.975 159.432, 157 156.586 C 160.025 153.740, 168.575 145.853, 176 139.059 C 183.425 132.265, 191.882 124.467, 194.794 121.730 C 197.706 118.994, 200.303 116.970, 200.565 117.232 C 201.720 118.387, 192.135 130.637, 184.190 138.162 C 179.411 142.688, 177.378 144.943, 179.673 143.173 C 187.565 137.085, 197.292 126.204, 200.655 119.700 C 203.300 114.585, 204.061 105.389, 202.917 92.357 L 201.850 80.213 205.585 75.357 C 211.338 67.877, 217.636 53.675, 219.428 44.140 C 221.395 33.680, 221.415 26.344, 219.505 16.362 C 218.311 10.123, 217.400 7.939, 214.980 5.524 C 212.145 2.694, 211.488 2.506, 204.725 2.591 C 192.806 2.741, 178.664 7.501, 164.802 16.027 L 160.104 18.917 155.716 16.465 C 143.107 9.418, 129.467 6.544, 111.936 7.241 C 98.271 7.784, 90.648 9.680, 78.802 15.481 C 73.218 18.216, 71.805 18.558, 70.302 17.540 C 61.296 11.438, 46.888 5.476, 36.162 3.412 C 27.177 1.683, 23.248 1.651, 20.030 3.279 M 23.443 19.607 C 23.058 22.690, 22.970 29.553, 23.247 34.857 C 23.801 45.459, 25.685 51.571, 31.776 62.530 L 35.414 69.076 38.057 62.195 C 39.510 58.411, 42.819 52.038, 45.409 48.034 C 48 44.030, 49.918 40.228, 49.672 39.587 C 49.426 38.945, 46.421 34.701, 42.996 30.155 C 37.279 22.568, 27.857 14, 25.231 14 C 24.633 14, 23.829 16.523, 23.443 19.607 M 200.963 17.750 C 194.125 23.583, 182.154 37.739, 182.032 40.136 C 182.015 40.486, 183.899 43.616, 186.220 47.092 C 188.541 50.568, 191.841 56.886, 193.553 61.132 L 196.666 68.853 199.939 63.454 C 201.738 60.485, 204.507 54.330, 206.092 49.777 C 208.561 42.684, 208.975 39.980, 208.987 30.875 C 209.002 18.874, 208.299 14, 206.555 14 C 205.898 14, 203.382 15.688, 200.963 17.750 M 46.357 22.375 C 49.285 25.826, 52.504 30.044, 53.510 31.748 L 55.340 34.846 59.170 31.217 C 61.277 29.221, 63 27.286, 63 26.918 C 63 26.036, 50.231 19.346, 45.076 17.527 L 41.034 16.101 46.357 22.375 M 185 18.382 C 179.427 20.711, 172.737 24.082, 170 25.942 C 168.751 26.790, 169.157 27.549, 172.432 30.480 C 174.594 32.416, 176.635 34, 176.966 34 C 177.298 34, 178.381 32.625, 179.374 30.945 C 180.366 29.264, 183.405 25.214, 186.126 21.945 C 188.847 18.675, 190.944 16.019, 190.786 16.042 C 190.629 16.066, 188.025 17.119, 185 18.382 M 105.500 18.582 C 81.589 22.122, 62.301 35.907, 50.309 58.026 C 47.033 64.069, 42.754 76.471, 41.071 84.799 C 40.147 89.372, 39.488 113, 40.285 113 C 40.441 113, 43.161 113.911, 46.328 115.024 C 56.870 118.729, 75.433 122.999, 81 123 C 82.915 123, 83.509 122.474, 83.537 120.750 C 83.557 119.513, 83.882 117.043, 84.259 115.262 C 84.884 112.311, 84.704 111.977, 82.223 111.486 C 80.725 111.190, 75.772 109.801, 71.215 108.400 C 64.921 106.465, 61.943 104.915, 58.824 101.947 L 54.718 98.042 55.280 91.851 C 56.103 82.775, 62.540 70.296, 70.521 62.303 C 79.228 53.583, 89.108 49.266, 105.432 47.047 C 109.794 46.455, 113.520 45.814, 113.710 45.623 C 113.901 45.433, 113.931 39.004, 113.778 31.337 L 113.500 17.397 105.500 18.582 M 118 31.679 C 118 39.555, 118.192 46, 118.428 46 C 121.993 46, 136.015 48.564, 140.929 50.114 C 149.962 52.963, 154.545 55.495, 160.125 60.714 C 169.560 69.539, 177 84.180, 177 93.919 C 177 98.241, 176.602 99.142, 173.487 101.878 C 168.101 106.607, 162.717 108.788, 149.952 111.413 C 147.436 111.930, 147.416 112.007, 148.417 117.468 C 149.615 124.007, 149.220 123.915, 163.690 121.014 C 173.212 119.105, 190.460 113.881, 191.837 112.489 C 192.202 112.120, 192.407 106.571, 192.294 100.159 C 191.527 56.746, 163.595 22.847, 124.737 18.169 L 118 17.358 118 31.679 M 106.701 25.632 C 105.699 26.635, 105.835 29.780, 106.910 30.444 C 108.666 31.530, 111.109 29.766, 110.803 27.633 C 110.500 25.520, 108.022 24.311, 106.701 25.632 M 121.667 25.667 C 120.400 26.933, 121.006 29.788, 122.678 30.430 C 123.616 30.790, 125.010 30.418, 125.842 29.587 C 127.063 28.366, 127.099 27.824, 126.042 26.550 C 124.691 24.923, 122.793 24.540, 121.667 25.667 M 106.701 36.632 C 105.699 37.635, 105.835 40.780, 106.910 41.444 C 108.666 42.530, 111.109 40.766, 110.803 38.633 C 110.500 36.520, 108.022 35.311, 106.701 36.632 M 121.332 37.578 C 120.999 38.445, 121.463 39.892, 122.363 40.792 C 123.879 42.307, 124.123 42.305, 125.664 40.764 C 127.039 39.390, 127.104 38.831, 126.042 37.550 C 124.383 35.552, 122.104 35.565, 121.332 37.578 M 75.535 83.104 C 72.141 86.083, 71 89.264, 72.902 90.439 C 73.398 90.746, 75.378 89.422, 77.302 87.498 C 79.451 85.349, 81.773 84, 83.323 84 C 86.976 84, 91.655 88.348, 92.426 92.459 C 93.140 96.262, 94.628 97.772, 96.157 96.243 C 98.081 94.319, 95.843 87.642, 91.968 83.750 C 88.738 80.505, 87.618 80, 83.652 80 C 79.952 80, 78.389 80.598, 75.535 83.104 M 140.549 83.091 C 136.471 86.671, 134.121 93.236, 136.074 95.589 C 137.690 97.536, 140 95.602, 140 92.301 C 140 90.921, 141.280 88.566, 142.923 86.923 C 147.090 82.757, 151.264 82.946, 155.426 87.489 C 157.835 90.119, 158.905 90.695, 159.772 89.828 C 160.639 88.961, 160.529 88.012, 159.326 85.974 C 155.405 79.338, 146.399 77.955, 140.549 83.091 M 106.500 105.871 C 92.213 109.647, 86.385 118.340, 92.280 127.087 C 94.894 130.966, 101.332 134.961, 105 134.980 C 108.309 134.997, 113.655 131.663, 114.478 129.069 C 115.347 126.331, 116.431 126.456, 117.796 129.452 C 121.363 137.279, 134.567 135.678, 140.005 126.759 C 146.619 115.912, 136.570 106.108, 118.120 105.406 C 113.379 105.226, 108.150 105.435, 106.500 105.871 M 106.643 108.981 C 99.980 111.088, 98.087 116.178, 102.372 120.463 C 108.540 126.631, 125.470 126.188, 130.822 119.719 C 132.856 117.262, 131.842 112.952, 128.677 110.599 C 126.426 108.925, 124.200 108.457, 117.677 108.288 C 113.180 108.172, 108.214 108.483, 106.643 108.981 M 45.522 121.080 C 51.797 131.558, 68.255 142.918, 84.355 147.885 C 93.032 150.562, 94 150.541, 94 147.674 C 94 146.395, 95.124 144.292, 96.498 143.002 L 98.997 140.654 95.779 139.096 C 94.010 138.239, 90.454 135.441, 87.878 132.878 C 83.602 128.625, 82.643 128.155, 76.881 127.486 C 71.030 126.807, 50.968 122.120, 46.586 120.408 C 45.098 119.827, 44.861 119.976, 45.522 121.080 M 181.500 121.628 C 176.710 123.408, 155.170 128, 151.608 128 C 149.904 128, 147.265 129.781, 143.452 133.504 C 140.351 136.532, 136.720 139.283, 135.384 139.618 L 132.954 140.228 135.477 142.566 C 137.082 144.054, 138 145.984, 138 147.871 L 138 150.838 146.250 148.337 C 159.847 144.214, 168.563 139.362, 177.308 131.047 C 184.698 124.021, 188.059 119.911, 186.285 120.070 C 185.853 120.109, 183.700 120.810, 181.500 121.628 M 218.269 142.693 C 219.242 142.947, 220.592 142.930, 221.269 142.656 C 221.946 142.382, 221.150 142.175, 219.500 142.195 C 217.850 142.215, 217.296 142.439, 218.269 142.693 M 230.750 142.662 C 231.438 142.940, 232.563 142.940, 233.250 142.662 C 233.938 142.385, 233.375 142.158, 232 142.158 C 230.625 142.158, 230.063 142.385, 230.750 142.662 M 213.813 143.683 C 214.534 143.972, 215.397 143.936, 215.729 143.604 C 216.061 143.272, 215.471 143.036, 214.417 143.079 C 213.252 143.127, 213.015 143.364, 213.813 143.683 M 239.083 144.377 C 240.106 145.303, 248 148.989, 248 148.541 C 248 147.972, 240.453 144, 239.373 144 C 238.985 144, 238.854 144.170, 239.083 144.377 M 103.750 146.120 C 102.237 146.696, 101 147.793, 101 148.558 C 101 151.377, 106.560 153, 116.200 152.996 C 123.838 152.993, 126.106 152.623, 128.892 150.924 C 132.066 148.989, 132.177 148.748, 130.609 147.178 C 129.270 145.836, 126.686 145.457, 117.717 145.287 C 111.548 145.170, 105.263 145.545, 103.750 146.120 M 171.951 147.636 C 170.549 148.507, 168.177 151.533, 166.681 154.360 L 163.960 159.500 165.926 165.500 C 167.008 168.800, 167.917 170.793, 167.946 169.928 C 167.976 169.064, 167.291 166.276, 166.425 163.734 C 164.879 159.196, 164.898 159.030, 167.506 154.581 C 168.966 152.089, 171.362 149.153, 172.831 148.056 C 176.027 145.670, 175.513 145.424, 171.951 147.636 M 200.322 148.989 C 197.474 150.622, 194.800 152.530, 194.380 153.229 C 193.762 154.257, 193.916 154.257, 195.184 153.230 C 196.047 152.532, 199.170 150.628, 202.126 148.999 C 205.082 147.369, 207.050 146.032, 206.500 146.027 C 205.950 146.023, 203.170 147.355, 200.322 148.989 M 229.813 150.683 C 230.534 150.972, 231.397 150.936, 231.729 150.604 C 232.061 150.272, 231.471 150.036, 230.417 150.079 C 229.252 150.127, 229.015 150.364, 229.813 150.683 M 212.638 153.500 C 212.955 154.325, 213.391 155, 213.607 155 C 213.823 155, 214 154.325, 214 153.500 C 214 152.675, 213.564 152, 213.031 152 C 212.499 152, 212.322 152.675, 212.638 153.500 M 256 155.500 C 257.866 157.425, 259.617 159, 259.892 159 C 260.167 159, 258.866 157.425, 257 155.500 C 255.134 153.575, 253.383 152, 253.108 152 C 252.833 152, 254.134 153.575, 256 155.500 M 218.345 154.543 C 218.019 155.392, 217.976 156.310, 218.249 156.583 C 218.523 156.856, 218.986 156.161, 219.279 155.040 C 219.903 152.657, 219.210 152.289, 218.345 154.543 M 212.252 159.500 C 212.263 161.700, 212.468 162.482, 212.707 161.238 C 212.946 159.994, 212.937 158.194, 212.687 157.238 C 212.437 156.282, 212.241 157.300, 212.252 159.500 M 200.872 158.750 C 199.629 160.336, 199.664 160.371, 201.250 159.128 C 202.916 157.821, 203.445 157, 202.622 157 C 202.415 157, 201.627 157.787, 200.872 158.750 M 234.924 159.750 L 232.500 162.500 235.250 160.076 C 236.762 158.742, 238 157.505, 238 157.326 C 238 156.541, 237.190 157.180, 234.924 159.750 M 249 160.313 C 249 160.485, 250.463 161.948, 252.250 163.563 L 255.500 166.500 252.563 163.250 C 249.825 160.221, 249 159.540, 249 160.313 M 263.097 164.440 C 264.252 166.398, 265.390 168, 265.624 168 C 266.335 168, 263.089 162.173, 262.005 161.503 C 261.451 161.160, 261.942 162.482, 263.097 164.440 M 152 164.605 C 150.317 165.637, 150.154 165.916, 151.500 165.458 C 155.850 163.979, 156.411 164.405, 158.139 170.500 C 159.075 173.800, 159.876 175.794, 159.920 174.932 C 160.073 171.929, 156.914 163, 155.711 163.035 C 155.045 163.055, 153.375 163.761, 152 164.605 M 231.459 164.067 C 231.096 164.653, 231.014 165.348, 231.276 165.610 C 231.538 165.872, 232.019 165.392, 232.345 164.543 C 233.021 162.781, 232.445 162.471, 231.459 164.067 M 189.453 168.250 L 185.500 172.500 189.750 168.547 C 192.088 166.373, 194 164.460, 194 164.297 C 194 163.540, 193.129 164.298, 189.453 168.250 M 179.405 167.250 L 177.500 169.500 179.750 167.595 C 181.864 165.805, 182.455 165, 181.655 165 C 181.465 165, 180.453 166.012, 179.405 167.250 M 195.079 166.059 C 195.036 166.916, 195.700 168.491, 196.555 169.559 C 198.085 171.469, 198.096 171.468, 197.190 169.500 C 196.684 168.400, 196.020 166.825, 195.714 166 C 195.234 164.704, 195.147 164.712, 195.079 166.059 M 219.584 167.359 C 219.931 168.261, 220.916 169, 221.774 169 C 222.631 169, 223.146 168.873, 222.917 168.717 C 222.688 168.561, 221.702 167.823, 220.727 167.076 C 219.184 165.893, 219.036 165.930, 219.584 167.359 M 203.405 169.750 C 205.457 172.174, 207.615 172.568, 210 170.954 C 211.109 170.204, 210.773 170.108, 208.710 170.588 C 206.730 171.049, 205.278 170.694, 203.710 169.369 L 201.500 167.500 203.405 169.750 M 213 169 C 212.099 169.582, 211.975 169.975, 212.691 169.985 C 213.346 169.993, 214.160 169.550, 214.500 169 C 215.267 167.758, 214.921 167.758, 213 169 M 174.698 173.250 C 171.985 176.919, 170.155 180.079, 171.658 178.500 C 173.514 176.551, 178.094 170, 177.602 170 C 177.327 170, 176.020 171.463, 174.698 173.250 M 168.158 174 C 168.158 175.375, 168.385 175.938, 168.662 175.250 C 168.940 174.563, 168.940 173.438, 168.662 172.750 C 168.385 172.063, 168.158 172.625, 168.158 174 M 234 173.711 C 234 174.285, 234.787 175.373, 235.750 176.128 C 237.369 177.397, 237.390 177.350, 236.033 175.500 C 235.226 174.400, 234.439 173.313, 234.283 173.083 C 234.127 172.854, 234 173.137, 234 173.711 M 185 175.941 C 185 176.459, 185.445 177.157, 185.989 177.493 C 186.555 177.843, 186.723 177.442, 186.382 176.552 C 185.717 174.820, 185 174.503, 185 175.941 M 268.079 176.583 C 268.127 177.748, 268.364 177.985, 268.683 177.188 C 268.972 176.466, 268.936 175.603, 268.604 175.271 C 268.272 174.939, 268.036 175.529, 268.079 176.583 M 197.765 179.527 C 195.710 181.437, 194.384 183, 194.819 183 C 195.253 183, 197.134 181.425, 199 179.500 C 203.353 175.009, 202.607 175.025, 197.765 179.527 M 169 179 C 169 180.100, 169.408 181, 169.906 181 C 170.405 181, 170.577 180.100, 170.290 179 C 170.002 177.900, 169.594 177, 169.383 177 C 169.173 177, 169 177.900, 169 179 M 160.378 189 C 160.378 195.325, 160.541 197.912, 160.739 194.750 C 160.937 191.588, 160.937 186.412, 160.739 183.250 C 160.541 180.088, 160.378 182.675, 160.378 189 M 237.564 179.293 C 237.940 180.279, 238.499 180.834, 238.807 180.526 C 239.115 180.219, 238.808 179.412, 238.124 178.733 C 237.136 177.753, 237.022 177.868, 237.564 179.293 M 178.880 181.250 C 178.225 182.488, 177.032 184.512, 176.229 185.750 C 175.427 186.988, 175.010 188, 175.303 188 C 175.597 188, 176.862 186.313, 178.116 184.250 C 179.369 182.188, 180.868 180.169, 181.447 179.765 C 182.146 179.277, 182.092 179.025, 181.285 179.015 C 180.617 179.007, 179.535 180.012, 178.880 181.250 M 189.226 180.579 C 190.176 181.570, 191.168 182.166, 191.431 181.903 C 191.694 181.640, 190.917 180.829, 189.705 180.100 C 187.598 178.835, 187.577 178.857, 189.226 180.579 M 228.500 181 C 229.495 182.100, 230.535 183, 230.810 183 C 231.085 183, 230.495 182.100, 229.500 181 C 228.505 179.900, 227.465 179, 227.190 179 C 226.915 179, 227.505 179.900, 228.500 181 M 107.313 180.786 C 105.798 181.749, 104.408 185.425, 102.593 193.270 C 101.126 199.606, 99.491 214.671, 100.790 209.880 C 101.180 208.439, 102.930 206.064, 104.677 204.602 L 107.854 201.945 108.291 204.223 C 108.658 206.136, 108.749 206.044, 108.864 203.643 C 108.939 202.072, 109.732 196.787, 110.626 191.898 C 111.932 184.758, 112.007 182.713, 111.004 181.505 C 109.601 179.814, 109.019 179.701, 107.313 180.786 M 118.168 180.875 C 117.194 181.492, 117.023 182.970, 117.531 186.360 C 117.914 188.912, 118.484 191, 118.799 191 C 119.114 191, 120.390 190.043, 121.635 188.873 L 123.898 186.747 124.569 189.420 C 124.938 190.890, 125.441 191.893, 125.686 191.648 C 126.569 190.764, 123.819 182.471, 122.237 181.250 C 120.340 179.785, 119.944 179.749, 118.168 180.875 M 185.218 184.250 C 186.765 185.762, 188.587 186.986, 189.266 186.970 C 189.945 186.953, 189.600 186.441, 188.500 185.833 C 187.400 185.225, 185.578 184.001, 184.452 183.113 C 183.325 182.226, 183.670 182.738, 185.218 184.250 M 204.437 184.250 L 201.500 187.500 204.750 184.563 C 207.779 181.825, 208.460 181, 207.687 181 C 207.515 181, 206.052 182.463, 204.437 184.250 M 256.872 187.750 C 255.629 189.336, 255.664 189.371, 257.250 188.128 C 258.212 187.373, 259 186.585, 259 186.378 C 259 185.555, 258.179 186.084, 256.872 187.750 M 189.615 189.500 C 188.727 190.875, 187.272 193.238, 186.381 194.750 L 184.763 197.500 186.774 195.066 C 189.151 192.191, 192.302 187, 191.672 187 C 191.429 187, 190.503 188.125, 189.615 189.500 M 241 187.378 C 241 187.585, 241.787 188.373, 242.750 189.128 C 244.336 190.371, 244.371 190.336, 243.128 188.750 C 241.821 187.084, 241 186.555, 241 187.378 M 199.872 189.750 C 198.629 191.336, 198.664 191.371, 200.250 190.128 C 201.213 189.373, 202 188.585, 202 188.378 C 202 187.555, 201.179 188.084, 199.872 189.750 M 119.195 194.500 C 119.215 196.150, 119.439 196.704, 119.693 195.731 C 119.947 194.758, 119.930 193.408, 119.656 192.731 C 119.382 192.054, 119.175 192.850, 119.195 194.500 M 196.872 193.750 C 195.629 195.336, 195.664 195.371, 197.250 194.128 C 198.916 192.821, 199.445 192, 198.622 192 C 198.415 192, 197.627 192.787, 196.872 193.750 M 262.872 193.750 C 261.629 195.336, 261.664 195.371, 263.250 194.128 C 264.212 193.373, 265 192.585, 265 192.378 C 265 191.555, 264.179 192.084, 262.872 193.750 M 126.158 195 C 126.158 196.375, 126.385 196.938, 126.662 196.250 C 126.940 195.563, 126.940 194.438, 126.662 193.750 C 126.385 193.063, 126.158 193.625, 126.158 195 M 177.500 197 C 178.495 198.100, 179.535 199, 179.810 199 C 180.085 199, 179.495 198.100, 178.500 197 C 177.505 195.900, 176.465 195, 176.190 195 C 175.915 195, 176.505 195.900, 177.500 197 M 167.195 199.500 C 167.215 201.150, 167.439 201.704, 167.693 200.731 C 167.947 199.758, 167.930 198.408, 167.656 197.731 C 167.382 197.054, 167.175 197.850, 167.195 199.500 M 127.079 199.583 C 127.127 200.748, 127.364 200.985, 127.683 200.188 C 127.972 199.466, 127.936 198.603, 127.604 198.271 C 127.272 197.939, 127.036 198.529, 127.079 199.583 M 56.801 201.750 C 52.343 206.515, 48.636 215.999, 51.231 216.001 C 51.929 216.001, 55.313 217.332, 58.750 218.958 C 62.188 220.585, 65.002 221.597, 65.005 221.208 C 65.007 220.818, 64.284 216.675, 63.397 212 C 62.511 207.325, 61.600 202.488, 61.374 201.250 C 60.836 198.312, 59.924 198.412, 56.801 201.750 M 120.158 201 C 120.158 202.375, 120.385 202.938, 120.662 202.250 C 120.940 201.563, 120.940 200.438, 120.662 199.750 C 120.385 199.063, 120.158 199.625, 120.158 201 M 247.269 199.693 C 248.242 199.947, 249.592 199.930, 250.269 199.656 C 250.946 199.382, 250.150 199.175, 248.500 199.195 C 246.850 199.215, 246.296 199.439, 247.269 199.693 M 180 200.378 C 180 200.585, 180.787 201.373, 181.750 202.128 C 183.336 203.371, 183.371 203.336, 182.128 201.750 C 180.821 200.084, 180 199.555, 180 200.378 M 128.232 206 C 128.232 207.925, 128.438 208.713, 128.689 207.750 C 128.941 206.787, 128.941 205.213, 128.689 204.250 C 128.438 203.287, 128.232 204.075, 128.232 206 M 159.079 204.583 C 159.127 205.748, 159.364 205.985, 159.683 205.188 C 159.972 204.466, 159.936 203.603, 159.604 203.271 C 159.272 202.939, 159.036 203.529, 159.079 204.583 M 175.100 204.705 C 175.829 205.917, 176.640 206.694, 176.903 206.431 C 177.166 206.168, 176.570 205.176, 175.579 204.226 C 173.857 202.577, 173.835 202.598, 175.100 204.705 M 121.252 208.500 C 121.263 210.700, 121.468 211.482, 121.707 210.238 C 121.946 208.994, 121.937 207.194, 121.687 206.238 C 121.437 205.282, 121.241 206.300, 121.252 208.500 M 166.079 206.583 C 166.127 207.748, 166.364 207.985, 166.683 207.188 C 166.972 206.466, 166.936 205.603, 166.604 205.271 C 166.272 204.939, 166.036 205.529, 166.079 206.583 M 107.252 211.500 C 107.263 213.700, 107.468 214.482, 107.707 213.238 C 107.946 211.994, 107.937 210.194, 107.687 209.238 C 107.437 208.282, 107.241 209.300, 107.252 211.500 M 158.079 209.219 C 158.025 210.390, 157.442 210.758, 156.250 210.374 C 154.787 209.904, 154.745 209.984, 155.992 210.864 C 157.738 212.096, 159.472 210.794, 158.691 208.838 C 158.326 207.921, 158.133 208.040, 158.079 209.219 M 147.264 209.718 C 148.784 209.947, 151.034 209.941, 152.264 209.704 C 153.494 209.467, 152.250 209.279, 149.500 209.286 C 146.750 209.294, 145.744 209.488, 147.264 209.718 M 165.158 212 C 165.158 213.375, 165.385 213.938, 165.662 213.250 C 165.940 212.563, 165.940 211.438, 165.662 210.750 C 165.385 210.063, 165.158 210.625, 165.158 212 M 187 210.924 C 187 211.398, 187.675 212.045, 188.500 212.362 C 189.325 212.678, 190 212.549, 190 212.076 C 190 211.602, 189.325 210.955, 188.500 210.638 C 187.675 210.322, 187 210.451, 187 210.924 M 129.136 213.250 C 128.976 216.478, 129.365 216.538, 134 214 C 138.106 211.752, 137.245 211.305, 133.019 213.490 C 130.276 214.909, 130.116 214.873, 129.704 212.740 C 129.336 210.831, 129.252 210.907, 129.136 213.250 M 122.136 216.708 L 122 219.916 114.250 220.257 L 106.500 220.598 114.281 220.799 C 122.631 221.015, 123.597 220.445, 122.715 215.823 C 122.374 214.031, 122.241 214.233, 122.136 216.708 M 190.310 220.500 C 190.315 223.800, 190.502 225.029, 190.725 223.232 C 190.947 221.435, 190.943 218.735, 190.715 217.232 C 190.486 215.729, 190.304 217.200, 190.310 220.500 M 145.813 216.683 C 146.534 216.972, 147.397 216.936, 147.729 216.604 C 148.061 216.272, 147.471 216.036, 146.417 216.079 C 145.252 216.127, 145.015 216.364, 145.813 216.683 M 140.813 217.683 C 141.534 217.972, 142.397 217.936, 142.729 217.604 C 143.061 217.272, 142.471 217.036, 141.417 217.079 C 140.252 217.127, 140.015 217.364, 140.813 217.683 M 150.813 217.683 C 151.534 217.972, 152.397 217.936, 152.729 217.604 C 153.061 217.272, 152.471 217.036, 151.417 217.079 C 150.252 217.127, 150.015 217.364, 150.813 217.683 M 135.441 219.555 C 133.611 221.022, 133.643 221.042, 136 219.920 C 139.061 218.462, 139.628 218, 138.358 218 C 137.821 218, 136.509 218.700, 135.441 219.555 M 95 220.869 C 96.375 222.017, 97.812 222.966, 98.193 222.978 C 98.573 222.990, 99.073 224.912, 99.302 227.250 L 99.720 231.500 99.610 227.202 C 99.513 223.399, 99.097 222.667, 96 220.844 L 92.500 218.783 95 220.869 M 163.158 221 C 163.158 222.375, 163.385 222.938, 163.662 222.250 C 163.940 221.563, 163.940 220.438, 163.662 219.750 C 163.385 219.063, 163.158 219.625, 163.158 221 M 130.872 222.750 C 129.629 224.336, 129.664 224.371, 131.250 223.128 C 132.916 221.821, 133.445 221, 132.622 221 C 132.415 221, 131.627 221.787, 130.872 222.750 M 180.572 221.750 C 181.069 222.162, 181.813 222.950, 182.223 223.500 C 182.649 224.071, 182.976 223.749, 182.985 222.750 C 182.993 221.777, 182.260 221, 181.333 221 C 180.417 221, 180.074 221.338, 180.572 221.750 M 168 226.500 C 166.625 227.286, 165.950 227.929, 166.500 227.929 C 167.050 227.929, 168.625 227.286, 170 226.500 C 171.375 225.714, 172.050 225.071, 171.500 225.071 C 170.950 225.071, 169.375 225.714, 168 226.500 M 106.079 227.583 C 106.127 228.748, 106.364 228.985, 106.683 228.188 C 106.972 227.466, 106.936 226.603, 106.604 226.271 C 106.272 225.939, 106.036 226.529, 106.079 227.583 M 111.250 226.716 C 112.763 226.945, 115.237 226.945, 116.750 226.716 C 118.263 226.487, 117.025 226.300, 114 226.300 C 110.975 226.300, 109.737 226.487, 111.250 226.716 M 129.286 230.500 C 129.294 233.250, 129.488 234.256, 129.718 232.736 C 129.947 231.216, 129.941 228.966, 129.704 227.736 C 129.467 226.506, 129.279 227.750, 129.286 230.500 M 181.079 228.583 C 181.127 229.748, 181.364 229.985, 181.683 229.188 C 181.972 228.466, 181.936 227.603, 181.604 227.271 C 181.272 226.939, 181.036 227.529, 181.079 228.583 M 162.441 229.555 C 160.577 231.049, 160.589 231.067, 162.750 230.020 C 163.988 229.420, 165 228.720, 165 228.465 C 165 227.700, 164.481 227.921, 162.441 229.555 M 189.079 229.583 C 189.127 230.748, 189.364 230.985, 189.683 230.188 C 189.972 229.466, 189.936 228.603, 189.604 228.271 C 189.272 227.939, 189.036 228.529, 189.079 229.583 M 122.232 235 C 122.232 236.925, 122.438 237.713, 122.689 236.750 C 122.941 235.787, 122.941 234.213, 122.689 233.250 C 122.438 232.287, 122.232 233.075, 122.232 235 M 107.252 236.500 C 107.263 238.700, 107.468 239.482, 107.707 238.238 C 107.946 236.994, 107.937 235.194, 107.687 234.238 C 107.437 233.282, 107.241 234.300, 107.252 236.500 M 100.252 238.500 C 100.263 240.700, 100.468 241.482, 100.707 240.238 C 100.946 238.994, 100.937 237.194, 100.687 236.238 C 100.437 235.282, 100.241 236.300, 100.252 238.500 M 187.768 236.168 C 188.350 236.750, 189.415 237.028, 190.137 236.788 C 190.886 236.538, 190.432 236.085, 189.080 235.731 C 187.417 235.296, 187.026 235.426, 187.768 236.168 M 78.070 236.500 C 78.020 238.672, 83.644 247.398, 86 248.803 C 88.442 250.259, 88.438 250.238, 85.830 247.897 C 84.362 246.579, 82.020 243.250, 80.627 240.500 C 79.233 237.750, 78.083 235.950, 78.070 236.500 M 71.578 239.500 C 73.165 244.388, 73.141 244.821, 71.250 245.421 C 70.186 245.758, 68.233 247.243, 66.908 248.719 L 64.500 251.404 67.616 248.952 C 69.330 247.603, 71.579 246.001, 72.615 245.392 C 74.435 244.321, 74.438 244.171, 72.713 240.892 C 71.731 239.026, 71.220 238.400, 71.578 239.500 M 128.232 241 C 128.232 242.925, 128.438 243.713, 128.689 242.750 C 128.941 241.787, 128.941 240.213, 128.689 239.250 C 128.438 238.287, 128.232 239.075, 128.232 241 M 196 240.500 C 197.292 241.875, 198.574 243, 198.849 243 C 199.124 243, 198.292 241.875, 197 240.500 C 195.708 239.125, 194.426 238, 194.151 238 C 193.876 238, 194.708 239.125, 196 240.500 M 173.924 241.750 L 171.500 244.500 174.250 242.076 C 176.820 239.810, 177.459 239, 176.674 239 C 176.495 239, 175.258 240.238, 173.924 241.750 M 121.195 242.500 C 121.215 244.150, 121.439 244.704, 121.693 243.731 C 121.947 242.758, 121.930 241.408, 121.656 240.731 C 121.382 240.054, 121.175 240.850, 121.195 242.500 M 147.459 242.067 C 147.096 242.653, 147.014 243.348, 147.276 243.610 C 147.538 243.872, 148.019 243.392, 148.345 242.543 C 149.021 240.781, 148.445 240.471, 147.459 242.067 M 108.195 244.500 C 108.215 246.150, 108.439 246.704, 108.693 245.731 C 108.947 244.758, 108.930 243.408, 108.656 242.731 C 108.382 242.054, 108.175 242.850, 108.195 244.500 M 101.158 246 C 101.158 247.375, 101.385 247.938, 101.662 247.250 C 101.940 246.563, 101.940 245.438, 101.662 244.750 C 101.385 244.063, 101.158 244.625, 101.158 246 M 154.733 245.124 C 155.412 245.808, 156.219 246.115, 156.526 245.807 C 156.834 245.499, 156.279 244.940, 155.293 244.564 C 153.868 244.022, 153.753 244.136, 154.733 245.124 M 179.250 244.689 C 180.213 244.941, 181.787 244.941, 182.750 244.689 C 183.713 244.438, 182.925 244.232, 181 244.232 C 179.075 244.232, 178.287 244.438, 179.250 244.689 M 144.872 246.750 C 143.629 248.336, 143.664 248.371, 145.250 247.128 C 146.213 246.373, 147 245.585, 147 245.378 C 147 244.555, 146.179 245.084, 144.872 246.750 M 168 246.500 C 166.990 247.717, 167.030 248, 168.211 248 C 169.012 248, 169.667 247.325, 169.667 246.500 C 169.667 245.675, 169.572 245, 169.456 245 C 169.340 245, 168.685 245.675, 168 246.500 M 120.079 247.583 C 120.127 248.748, 120.364 248.985, 120.683 248.188 C 120.972 247.466, 120.936 246.603, 120.604 246.271 C 120.272 245.939, 120.036 246.529, 120.079 247.583 M 190 247.378 C 190 247.585, 190.787 248.373, 191.750 249.128 C 193.336 250.371, 193.371 250.336, 192.128 248.750 C 190.821 247.084, 190 246.555, 190 247.378 M 90.511 252.377 C 91.457 253.820, 92.419 255, 92.650 255 C 93.374 255, 91.045 251.146, 89.891 250.433 C 89.287 250.059, 89.566 250.934, 90.511 252.377 M 119.079 251.583 C 119.127 252.748, 119.364 252.985, 119.683 252.188 C 119.972 251.466, 119.936 250.603, 119.604 250.271 C 119.272 249.939, 119.036 250.529, 119.079 251.583 M 126.079 251.583 C 126.127 252.748, 126.364 252.985, 126.683 252.188 C 126.972 251.466, 126.936 250.603, 126.604 250.271 C 126.272 249.939, 126.036 250.529, 126.079 251.583 M 110.079 252.583 C 110.127 253.748, 110.364 253.985, 110.683 253.188 C 110.972 252.466, 110.936 251.603, 110.604 251.271 C 110.272 250.939, 110.036 251.529, 110.079 252.583 M 71.388 254.531 C 70.475 255.923, 70.015 257.348, 70.365 257.698 C 70.714 258.047, 71 257.808, 71 257.167 C 71 256.525, 71.900 255.100, 73 254 C 74.100 252.900, 74.560 252, 74.023 252 C 73.486 252, 72.300 253.139, 71.388 254.531 M 84.083 252.283 C 84.313 252.439, 85.400 253.226, 86.500 254.033 C 88.350 255.390, 88.397 255.369, 87.128 253.750 C 86.373 252.787, 85.285 252, 84.711 252 C 84.137 252, 83.854 252.127, 84.083 252.283 M 202.158 254 C 202.158 255.375, 202.385 255.938, 202.662 255.250 C 202.940 254.563, 202.940 253.438, 202.662 252.750 C 202.385 252.063, 202.158 252.625, 202.158 254 M 140.405 255.250 L 138.500 257.500 140.750 255.595 C 142.864 253.805, 143.455 253, 142.655 253 C 142.465 253, 141.453 254.012, 140.405 255.250 M 194.195 256.500 C 194.215 258.150, 194.439 258.704, 194.693 257.731 C 194.947 256.758, 194.930 255.408, 194.656 254.731 C 194.382 254.054, 194.175 254.850, 194.195 256.500 M 89 255.378 C 89 255.585, 89.787 256.373, 90.750 257.128 C 92.336 258.371, 92.371 258.336, 91.128 256.750 C 89.821 255.084, 89 254.555, 89 255.378 M 93.079 257.583 C 93.127 258.748, 93.364 258.985, 93.683 258.188 C 93.972 257.466, 93.936 256.603, 93.604 256.271 C 93.272 255.939, 93.036 256.529, 93.079 257.583 M 135.079 258.872 C 135.012 260.871, 135.237 261.049, 136.500 260 C 138.138 258.640, 138.553 257.540, 137.085 258.447 C 136.582 258.758, 135.943 258.447, 135.664 257.756 C 135.386 257.065, 135.122 257.568, 135.079 258.872 M 122.232 265 C 122.232 266.925, 122.438 267.712, 122.689 266.750 C 122.941 265.788, 122.941 264.212, 122.689 263.250 C 122.438 262.288, 122.232 263.075, 122.232 265 M 199.872 264.750 C 198.629 266.336, 198.664 266.371, 200.250 265.128 C 201.916 263.821, 202.445 263, 201.622 263 C 201.415 263, 200.627 263.788, 199.872 264.750 M 90 268 L 73.500 268.575 89.691 268.788 C 99.642 268.918, 106.120 268.615, 106.500 268 C 106.840 267.450, 106.979 267.096, 106.809 267.212 C 106.639 267.329, 99.075 267.684, 90 268 M 166.651 267.750 C 166.395 268.163, 170.531 268.381, 175.842 268.235 C 193.662 267.745, 195.607 267.371, 181.309 267.185 C 173.504 267.083, 166.908 267.337, 166.651 267.750 M 138.784 268.738 C 141.689 268.941, 146.189 268.939, 148.784 268.734 C 151.378 268.528, 149 268.363, 143.500 268.365 C 138 268.368, 135.878 268.536, 138.784 268.738 M 115.500 274 C 116.495 275.100, 117.535 276, 117.810 276 C 118.085 276, 117.495 275.100, 116.500 274 C 115.505 272.900, 114.465 272, 114.190 272 C 113.915 272, 114.505 272.900, 115.500 274 M 110 276 C 109.099 276.582, 108.975 276.975, 109.691 276.985 C 110.346 276.993, 111.160 276.550, 111.500 276 C 112.267 274.758, 111.921 274.758, 110 276 M 81.250 277.745 C 86.062 277.928, 93.937 277.928, 98.750 277.745 C 103.563 277.561, 99.625 277.411, 90 277.411 C 80.375 277.411, 76.438 277.561, 81.250 277.745 M 130.250 277.745 C 135.062 277.928, 142.937 277.928, 147.750 277.745 C 152.563 277.561, 148.625 277.411, 139 277.411 C 129.375 277.411, 125.438 277.561, 130.250 277.745" stroke="none" fill="#cc5772" fill-rule="evenodd"/></svg>